HIERARCHY
ROOT joint_0
{
	OFFSET 0.000000 0.000000 0.000000
	CHANNELS 6 Xposition Yposition Zposition Zrotation Yrotation Xrotation 
	JOINT joint_1
	{
		OFFSET 0.000000 0.000000 0.000000
		CHANNELS 3 Zrotation Yrotation Xrotation
		JOINT joint_2
		{
			OFFSET 3.811170 -8.520760 0.839290
			CHANNELS 3 Zrotation Yrotation Xrotation
			JOINT joint_3
			{
				OFFSET 2.562200 -7.039590 0.000000
				CHANNELS 3 Zrotation Yrotation Xrotation
				JOINT joint_4
				{
					OFFSET 0.157640 -0.433110 2.322550
					CHANNELS 3 Zrotation Yrotation Xrotation
					End Site
					{
						OFFSET 0.000000 0.000000 0.000000
					}
				}
			}
		}
	}
	JOINT joint_5
	{
		OFFSET 0.000000 0.000000 0.000000
		CHANNELS 3 Zrotation Yrotation Xrotation
		JOINT joint_6
		{
			OFFSET -3.848050 -8.780180 0.839290
			CHANNELS 3 Zrotation Yrotation Xrotation
			JOINT joint_7
			{
				OFFSET -2.568260 -7.056230 0.000000
				CHANNELS 3 Zrotation Yrotation Xrotation
				JOINT joint_8
				{
					OFFSET -0.164730 -0.452590 2.363150
					CHANNELS 3 Zrotation Yrotation Xrotation
					End Site
					{
						OFFSET 0.000000 0.000000 0.000000
					}
				}
			}
		}
	}
	JOINT joint_9
	{
		OFFSET 0.028270 2.035590 -0.193380
		CHANNELS 3 Zrotation Yrotation Xrotation
		JOINT joint_10
		{
			OFFSET 0.056720 2.048850 -0.042750
			CHANNELS 3 Zrotation Yrotation Xrotation
			JOINT joint_11
			{
				OFFSET -0.054170 1.746240 0.172020
				CHANNELS 3 Zrotation Yrotation Xrotation
				JOINT joint_12
				{
					OFFSET 0.104070 1.761360 -0.123970
					CHANNELS 3 Zrotation Yrotation Xrotation
					End Site
					{
						OFFSET 0.000000 0.000000 0.000000
					}
				}
			}
			JOINT joint_13
			{
				OFFSET 3.362410 1.200890 -0.311210
				CHANNELS 3 Zrotation Yrotation Xrotation
				JOINT joint_14
				{
					OFFSET 4.983000 -0.000000 -0.000000
					CHANNELS 3 Zrotation Yrotation Xrotation
					JOINT joint_15
					{
						OFFSET 3.483560 -0.000000 -0.000000
						CHANNELS 3 Zrotation Yrotation Xrotation
						JOINT joint_16
						{
							OFFSET 0.715260 -0.000000 -0.000000
							CHANNELS 3 Zrotation Yrotation Xrotation
							End Site
							{
								OFFSET 0.000000 0.000000 0.000000
							}
						}
					}
				}
			}
			JOINT joint_17
			{
				OFFSET -3.136600 1.374050 -0.404650
				CHANNELS 3 Zrotation Yrotation Xrotation
				JOINT joint_18
				{
					OFFSET -5.241900 -0.000000 -0.000000
					CHANNELS 3 Zrotation Yrotation Xrotation
					JOINT joint_19
					{
						OFFSET -3.444170 -0.000000 -0.000000
						CHANNELS 3 Zrotation Yrotation Xrotation
						JOINT joint_20
						{
							OFFSET -0.622530 -0.000000 -0.000000
							CHANNELS 3 Zrotation Yrotation Xrotation
							End Site
							{
								OFFSET 0.000000 0.000000 0.000000
							}
						}
					}
				}
			}
		}
	}
}
MOTION
Frames: 15
Frame Time: 0.031667
-2.459858 14.507683 5.742495 170.276443 -42.221558 178.379807 -48.984005 -19.434052 -43.503300 -11.106493 -2.452608 27.779575 -27.160994 6.755952 -16.491898 0.000000 0.000000 0.000000 -14.215822 -12.158739 20.078259 78.594345 -12.644643 -23.963055 36.308670 0.392145 -93.656593 0.000000 0.000000 0.000000 1.337924 6.070501 -1.706603 1.145263 -2.052333 -2.392485 0.000000 0.000000 0.000000 0.000000 0.000000 0.000000 -63.238781 -2.993590 -3.987954 0.344124 -63.263706 0.000000 0.000000 0.000000 0.000000 0.000000 0.000000 0.000000 120.503487 16.241066 51.094517 55.502720 82.383781 180.000000 0.000000 0.000000 0.000000 0.000000 0.000000 0.000000 
-2.618448 14.527208 5.658350 170.375656 -37.557163 178.634201 -45.489597 -15.265795 -46.295216 -8.315149 -0.478913 28.768559 -19.110294 3.497871 -11.714789 0.000000 0.000000 0.000000 -14.058252 -12.561026 19.915379 78.009544 -12.185879 -24.024576 35.716045 0.844357 -94.099632 0.000000 0.000000 0.000000 1.298297 6.085478 -1.728564 0.767722 -2.025471 -2.446274 0.000000 0.000000 0.000000 0.000000 0.000000 0.000000 -61.619839 -2.345531 -3.857317 -2.054265 -65.182053 0.000000 0.000000 0.000000 0.000000 0.000000 0.000000 0.000000 119.862236 17.059450 51.459858 56.964165 81.926155 180.000000 0.000000 0.000000 0.000000 0.000000 0.000000 0.000000 
-2.764054 14.545231 5.564871 170.413406 -32.941769 178.892181 -42.914509 -11.790962 -48.133644 -6.125119 0.790963 29.385511 -12.640959 0.251777 -8.656045 0.000000 0.000000 0.000000 -13.811565 -12.920673 19.794056 77.324181 -11.845749 -23.856426 35.034485 1.209609 -94.198418 0.000000 0.000000 0.000000 1.267510 6.050023 -1.729006 0.333792 -1.874008 -2.565630 0.000000 0.000000 0.000000 0.000000 0.000000 0.000000 -60.368095 -1.827411 -3.593765 -4.456031 -67.022934 0.000000 0.000000 0.000000 0.000000 0.000000 0.000000 0.000000 119.334480 17.652933 51.469238 58.945236 81.631401 180.000000 0.000000 0.000000 0.000000 0.000000 0.000000 0.000000 
-2.906213 14.562422 5.467940 170.488632 -28.315804 179.197021 -40.705555 -9.128773 -49.535786 -4.559643 1.681029 29.896345 -7.882620 -2.330039 -6.769379 0.000000 0.000000 0.000000 -13.657793 -13.260310 19.488449 76.866013 -11.781872 -23.662788 34.529427 1.122191 -93.868698 0.000000 0.000000 0.000000 1.209873 6.031447 -1.788855 -0.040939 -1.770616 -2.599932 0.000000 0.000000 0.000000 0.000000 0.000000 0.000000 -58.821457 -1.284494 -3.324339 -6.655150 -68.827377 0.000000 0.000000 0.000000 0.000000 0.000000 0.000000 0.000000 118.783646 18.462976 51.150581 60.710011 80.945709 180.000000 0.000000 0.000000 0.000000 0.000000 0.000000 0.000000 
-3.037075 14.576888 5.359700 170.548111 -23.823706 179.467407 -38.937469 -7.077345 -50.366741 -3.546486 2.033758 30.222988 -4.454460 -4.482962 -5.751034 0.000000 0.000000 0.000000 -13.555423 -13.610476 19.206251 76.413864 -12.029043 -23.087276 34.093063 0.753347 -92.938560 0.000000 0.000000 0.000000 1.159178 5.954993 -1.828800 -0.430943 -1.590466 -2.715010 0.000000 0.000000 0.000000 0.000000 0.000000 0.000000 -57.682899 -0.959209 -2.994166 -8.530518 -70.598930 0.000000 0.000000 0.000000 0.000000 0.000000 0.000000 0.000000 118.343620 19.007753 50.660095 62.842625 80.605423 180.000000 0.000000 0.000000 0.000000 0.000000 0.000000 0.000000 
-3.164959 14.590025 5.247998 170.648514 -19.354546 179.764572 -37.243618 -5.564194 -51.028179 -2.920154 2.211472 30.507610 -2.048873 -6.043895 -5.087246 0.000000 0.000000 0.000000 -13.574015 -13.974320 18.763432 76.141487 -12.533469 -22.453260 33.781391 0.036046 -91.653160 0.000000 0.000000 0.000000 1.087571 5.891832 -1.914585 -0.744333 -1.488474 -2.746904 0.000000 0.000000 0.000000 0.000000 0.000000 0.000000 -56.241470 -0.634142 -2.708070 -10.088702 -72.317390 0.000000 0.000000 0.000000 0.000000 0.000000 0.000000 0.000000 117.880608 19.803268 49.897518 64.673141 79.877487 180.000000 0.000000 0.000000 0.000000 0.000000 0.000000 0.000000 
-3.282469 14.598531 5.124234 170.778320 -15.053505 -179.976471 -35.889694 -4.433465 -51.349895 -2.462631 2.038053 30.690659 -0.338416 -7.458840 -4.929926 0.000000 0.000000 0.000000 -13.695834 -14.378551 18.300091 75.858154 -13.422691 -21.372761 33.523430 -0.980833 -89.735466 0.000000 0.000000 0.000000 1.027895 5.779052 -1.981749 -1.043203 -1.341384 -2.867278 0.000000 0.000000 0.000000 0.000000 0.000000 0.000000 -55.268120 -0.568518 -2.468050 -11.045447 -74.052811 0.000000 0.000000 0.000000 0.000000 0.000000 0.000000 0.000000 117.509720 20.322695 49.173386 66.797562 79.687569 180.000000 0.000000 0.000000 0.000000 0.000000 0.000000 0.000000 
-3.397201 14.605514 4.997565 170.957077 -10.781870 -179.693497 -34.511520 -3.648471 -51.634605 -2.182199 1.823728 30.841179 0.862779 -8.532780 -4.854408 0.000000 0.000000 0.000000 -13.905903 -14.807211 17.689583 75.633057 -14.499919 -20.224796 33.253708 -2.188256 -87.587883 0.000000 0.000000 0.000000 0.955213 5.681092 -2.084006 -1.266655 -1.275324 -2.912960 0.000000 0.000000 0.000000 0.000000 0.000000 0.000000 -53.982712 -0.501089 -2.332236 -11.615949 -75.678726 0.000000 0.000000 0.000000 0.000000 0.000000 0.000000 0.000000 117.109955 21.097361 48.233837 68.609886 79.153458 180.000000 0.000000 0.000000 0.000000 0.000000 0.000000 0.000000 
-3.501622 14.606843 4.860115 171.189468 -6.673385 -179.448105 -33.463245 -3.009496 -51.720428 -1.771366 1.403730 30.942438 1.725991 -9.623853 -5.208092 0.000000 0.000000 0.000000 -14.162025 -15.284336 17.064108 75.254936 -15.851659 -18.683624 32.889297 -3.525099 -84.995430 0.000000 0.000000 0.000000 0.898941 5.540032 -2.166855 -1.480284 -1.161665 -3.055149 0.000000 0.000000 0.000000 0.000000 0.000000 0.000000 -53.223148 -0.665238 -2.332563 -11.461014 -77.342560 -0.000000 0.000000 0.000000 0.000000 0.000000 0.000000 0.000000 116.774887 21.559202 47.510155 70.750023 79.323235 180.000000 0.000000 0.000000 0.000000 0.000000 0.000000 0.000000 
-3.603539 14.607029 4.720396 171.478287 -2.584581 -179.173004 -32.336823 -2.602874 -51.844105 -1.433039 1.020050 31.028566 2.334241 -10.498594 -5.552835 0.000000 0.000000 0.000000 -14.457544 -15.769033 16.307693 74.821159 -17.297323 -17.090029 32.407887 -4.913155 -82.283508 0.000000 0.000000 0.000000 0.835499 5.417165 -2.277654 -1.624866 -1.115233 -3.134899 0.000000 0.000000 0.000000 0.000000 0.000000 0.000000 -52.145988 -0.815131 -2.483171 -10.926962 -78.824554 0.000000 0.000000 0.000000 0.000000 0.000000 0.000000 0.000000 116.399796 22.259054 46.619877 72.605705 79.211143 180.000000 0.000000 0.000000 0.000000 0.000000 0.000000 0.000000 
-3.695530 14.602684 4.571686 171.832626 1.375654 -178.939560 -31.515686 -2.141243 -51.843086 -0.822581 0.552670 31.105478 2.760975 -11.390014 -6.262082 0.000000 0.000000 0.000000 -14.706707 -16.277472 15.572935 74.114159 -18.821819 -15.213920 31.727982 -6.201393 -79.400169 0.000000 0.000000 0.000000 0.790408 5.258272 -2.367750 -1.777445 -1.007017 -3.315362 0.000000 0.000000 0.000000 0.000000 0.000000 0.000000 -51.625607 -1.139447 -2.798934 -9.730997 -80.369652 -0.000000 0.000000 0.000000 0.000000 0.000000 0.000000 0.000000 116.077065 22.592627 46.066902 74.828590 79.881233 180.000000 0.000000 0.000000 0.000000 0.000000 0.000000 0.000000 
-3.785338 14.597994 4.421126 172.246323 5.330235 -178.664795 -30.572662 -1.860063 -51.921154 -0.260031 0.162272 31.182844 3.053716 -12.112490 -6.905626 0.000000 0.000000 0.000000 -14.961811 -16.758076 14.723039 73.300591 -20.361622 -13.306602 30.913977 -7.455127 -76.470551 0.000000 0.000000 0.000000 0.741038 5.122415 -2.481125 -1.865895 -0.952002 -3.440548 0.000000 0.000000 0.000000 0.000000 0.000000 0.000000 -50.778839 -1.439879 -3.273101 -8.230814 -81.676781 0.000000 0.000000 0.000000 0.000000 0.000000 0.000000 0.000000 115.704330 23.149244 45.372013 76.810699 80.308586 180.000000 0.000000 0.000000 0.000000 0.000000 0.000000 0.000000 
-3.865871 14.591835 4.262709 172.722534 9.200757 -178.432083 -29.884148 -1.402234 -51.889748 0.580067 -0.236231 31.257853 3.237857 -12.801289 -7.796706 0.000000 0.000000 0.000000 -15.124362 -17.226196 13.896852 72.187019 -21.862436 -11.186255 29.919407 -8.461217 -73.590767 0.000000 0.000000 0.000000 0.709493 4.960502 -2.570540 -1.973201 -0.829529 -3.657314 0.000000 0.000000 0.000000 0.000000 0.000000 0.000000 -50.479885 -1.864316 -3.871553 -6.271135 -83.099686 0.000000 0.000000 0.000000 0.000000 0.000000 0.000000 0.000000 115.407875 23.318027 45.027866 79.109497 81.404640 180.000000 0.000000 0.000000 0.000000 0.000000 0.000000 0.000000 
-3.944309 14.586116 4.102765 173.253860 13.079476 -178.145386 -29.033716 -1.116539 -51.953972 1.344118 -0.544335 31.336868 3.349433 -13.345954 -8.576301 0.000000 0.000000 0.000000 -15.274775 -17.632118 12.970509 70.954826 -23.334265 -9.046260 28.827209 -9.402448 -70.700859 0.000000 0.000000 0.000000 0.674114 4.824510 -2.680019 -2.022678 -0.752888 -3.818659 0.000000 0.000000 0.000000 0.000000 0.000000 0.000000 -49.837166 -2.258131 -4.594992 -4.106819 -84.254005 0.000000 0.000000 0.000000 0.000000 0.000000 0.000000 0.000000 115.054115 23.711470 44.533176 81.200180 82.250465 180.000000 0.000000 0.000000 0.000000 0.000000 0.000000 0.000000 
-4.013194 14.582400 3.935857 173.818298 16.912605 -177.895737 -28.361057 -0.624404 -51.876083 2.265989 -0.843226 31.376375 3.400172 -13.835317 -9.466182 0.000000 0.000000 0.000000 -15.333405 -18.007256 12.029837 69.418083 -24.765429 -6.692980 27.625587 -10.071059 -67.958122 0.000000 0.000000 0.000000 0.654127 4.666471 -2.759387 -2.097513 -0.618409 -4.052387 0.000000 0.000000 0.000000 0.000000 0.000000 0.000000 -49.708309 -2.742376 -5.349128 -1.740549 -85.580353 0.000000 0.000000 0.000000 0.000000 0.000000 0.000000 0.000000 114.813232 23.760559 44.268898 83.443420 83.441147 -180.000000 0.000000 0.000000 0.000000 0.000000 0.000000 0.000000 
